<svg xmlns="http://www.w3.org/2000/svg" width="19.659" height="18.468" viewBox="0 0 19.659 18.468">
  <path id="Контур_59" data-name="Контур 59" d="M-756.908,2918.735a.577.577,0,0,0-.661-.144l-18.507,8.1a.577.577,0,0,0-.345.515.578.578,0,0,0,.322.53l4.419,2.173,1.1,6.606a.576.576,0,0,0,.489.489.573.573,0,0,0,.5-.169l3.488-3.489,4.979,3.557a.579.579,0,0,0,.546.067.577.577,0,0,0,.353-.423l3.456-17.317A.575.575,0,0,0-756.908,2918.735Zm-14.316,10.115-3.254-1.6,12.856-5.628Zm1.8,1.713-.535,2.678-.578-3.467,7.064-5.318-5.793,5.813A.582.582,0,0,0-769.422,2930.563Zm.351,4.119.6-3.02,1.41,1.007Zm7.887.766-6.786-4.847,9.694-9.726Z" transform="translate(776.421 -2918.543)" fill="#fff"/>
</svg>
