<svg xmlns="http://www.w3.org/2000/svg" width="19.659" height="18.469" viewBox="0 0 19.659 18.469">
  <path id="Контур_40" data-name="Контур 40" d="M-756.908,96.2a.577.577,0,0,0-.661-.145l-18.507,8.1a.576.576,0,0,0-.345.515.576.576,0,0,0,.322.529l4.419,2.173,1.1,6.607a.577.577,0,0,0,.489.489.579.579,0,0,0,.5-.169l3.488-3.489,4.979,3.556a.574.574,0,0,0,.546.067.575.575,0,0,0,.353-.423l3.456-17.316A.575.575,0,0,0-756.908,96.2Zm-14.316,10.115-3.254-1.6,12.856-5.628Zm1.8,1.712-.535,2.678-.578-3.467,7.064-5.317-5.793,5.812A.59.59,0,0,0-769.422,108.026Zm.351,4.12.6-3.021,1.41,1.007Zm7.887.766-6.786-4.847,9.694-9.726Z" transform="translate(776.421 -96.006)" fill="#040505"/>
</svg>
