<svg xmlns="http://www.w3.org/2000/svg" width="20" height="20" viewBox="0 0 20 20">
  <g id="Сгруппировать_85" data-name="Сгруппировать 85" transform="translate(736.62 -95.24)">
    <g id="Сгруппировать_83" data-name="Сгруппировать 83">
      <path id="Контур_41" data-name="Контур 41" d="M-726.62,95.24a10.022,10.022,0,0,0-10,10,9.927,9.927,0,0,0,1.488,5.114l-1.454,4.105a.583.583,0,0,0,.136.607.58.58,0,0,0,.416.174.591.591,0,0,0,.19-.031l4.147-1.42a9.7,9.7,0,0,0,5.077,1.451,9.928,9.928,0,0,0,7.063-2.937,9.928,9.928,0,0,0,2.937-7.063A10.022,10.022,0,0,0-726.62,95.24Zm0,18.828a8.609,8.609,0,0,1-4.689-1.417.584.584,0,0,0-.315-.092.591.591,0,0,0-.19.031l-3.263,1.117,1.144-3.228a.587.587,0,0,0-.058-.511,8.815,8.815,0,0,1-1.457-4.728,8.838,8.838,0,0,1,8.828-8.828,8.838,8.838,0,0,1,8.828,8.828A8.838,8.838,0,0,1-726.62,114.068Z" fill="#040505"/>
    </g>
    <g id="Сгруппировать_84" data-name="Сгруппировать 84">
      <path id="Контур_42" data-name="Контур 42" d="M-720.5,107.639l-1.862-1.86a1.229,1.229,0,0,0-.879-.365,1.233,1.233,0,0,0-.88.365l-.465.465a.724.724,0,0,1-.516.213.726.726,0,0,1-.517-.213l-1.861-1.862a.732.732,0,0,1,0-1.032l.466-.465a1.241,1.241,0,0,0,.364-.88,1.241,1.241,0,0,0-.364-.88l-1.862-1.861a1.245,1.245,0,0,0-1.759,0l-.465.465a4.273,4.273,0,0,0-.58,3.67,8.985,8.985,0,0,0,2.441,4.6,8.985,8.985,0,0,0,4.6,2.441c1.161.224,2.839.25,3.67-.58l.465-.465a1.235,1.235,0,0,0,.364-.88A1.238,1.238,0,0,0-720.5,107.639Zm-.829.931-.465.466a3.388,3.388,0,0,1-2.619.257,7.81,7.81,0,0,1-4-2.119,7.81,7.81,0,0,1-2.119-4,6.042,6.042,0,0,1-.116-1.145,2.269,2.269,0,0,1,.373-1.474l.466-.465a.071.071,0,0,1,.051-.021.073.073,0,0,1,.051.021l1.861,1.861a.07.07,0,0,1,.021.051.07.07,0,0,1-.021.051l-.465.466a1.9,1.9,0,0,0,0,2.689l1.861,1.861a1.886,1.886,0,0,0,1.345.557,1.888,1.888,0,0,0,1.345-.557l.465-.465a.072.072,0,0,1,.1,0l1.861,1.861a.071.071,0,0,1,.021.051A.07.07,0,0,1-721.328,108.57Z" fill="#040505"/>
    </g>
  </g>
</svg>
