<svg xmlns="http://www.w3.org/2000/svg" width="20" height="20" viewBox="0 0 20 20">
  <g id="Сгруппировать_102" data-name="Сгруппировать 102" transform="translate(736.62 -2917.777)">
    <g id="Сгруппировать_100" data-name="Сгруппировать 100">
      <path id="Контур_60" data-name="Контур 60" d="M-726.62,2917.777a10.022,10.022,0,0,0-10,10,9.92,9.92,0,0,0,1.488,5.113l-1.454,4.105a.585.585,0,0,0,.136.608.584.584,0,0,0,.416.174.567.567,0,0,0,.19-.032l4.147-1.419a9.7,9.7,0,0,0,5.077,1.451,9.929,9.929,0,0,0,7.063-2.937,9.93,9.93,0,0,0,2.937-7.063A10.022,10.022,0,0,0-726.62,2917.777Zm0,18.828a8.6,8.6,0,0,1-4.689-1.418.583.583,0,0,0-.315-.092.592.592,0,0,0-.19.032l-3.263,1.117,1.144-3.228a.59.59,0,0,0-.058-.512,8.814,8.814,0,0,1-1.457-4.727,8.838,8.838,0,0,1,8.828-8.828,8.838,8.838,0,0,1,8.828,8.828A8.838,8.838,0,0,1-726.62,2936.6Z" fill="#fff"/>
    </g>
    <g id="Сгруппировать_101" data-name="Сгруппировать 101">
      <path id="Контур_61" data-name="Контур 61" d="M-720.5,2930.176l-1.862-1.861a1.233,1.233,0,0,0-.879-.364,1.237,1.237,0,0,0-.88.364l-.465.465a.725.725,0,0,1-.516.214.727.727,0,0,1-.517-.214l-1.861-1.861a.731.731,0,0,1,0-1.032l.466-.466a1.238,1.238,0,0,0,.364-.879,1.239,1.239,0,0,0-.364-.88l-1.862-1.861a1.245,1.245,0,0,0-1.759,0l-.465.465a4.272,4.272,0,0,0-.58,3.67,8.993,8.993,0,0,0,2.441,4.6,8.991,8.991,0,0,0,4.6,2.44c1.161.224,2.839.251,3.67-.579l.465-.466a1.233,1.233,0,0,0,.364-.879A1.236,1.236,0,0,0-720.5,2930.176Zm-.829.931-.465.465a3.384,3.384,0,0,1-2.619.257,7.806,7.806,0,0,1-4-2.118,7.815,7.815,0,0,1-2.119-4,6.024,6.024,0,0,1-.116-1.145,2.266,2.266,0,0,1,.373-1.473l.466-.466a.071.071,0,0,1,.051-.021.073.073,0,0,1,.051.021l1.861,1.861a.072.072,0,0,1,.021.052.068.068,0,0,1-.021.05l-.465.466a1.9,1.9,0,0,0,0,2.689l1.861,1.862a1.89,1.89,0,0,0,1.345.557,1.892,1.892,0,0,0,1.345-.557l.465-.465a.071.071,0,0,1,.1,0l1.861,1.861a.07.07,0,0,1,.021.051A.069.069,0,0,1-721.328,2931.107Z" fill="#fff"/>
    </g>
  </g>
</svg>
