<svg xmlns="http://www.w3.org/2000/svg" width="54.274" height="62.67" viewBox="0 0 54.274 62.67">
  <g id="Сгруппировать_98" data-name="Сгруппировать 98" transform="translate(2019.671 -2860.705)">
    <path id="Контур_54" data-name="Контур 54" d="M-1977.283,2875.465l5.157-2.978v7.77l-5.157,2.977Z" fill="#262626" fill-rule="evenodd"/>
    <path id="Контур_55" data-name="Контур 55" d="M-1989.169,2921.432l-3.365,1.943-11.886-6.863v-7.77l8.521,4.92v-43.245l-8.521,4.92v-7.77l11.886-6.862,3.365,1.942v58.785Zm-15.251-4.92-1.682-.971-13.569-7.834v-31.335l13.569-7.833,1.682-.972v7.77l-8.522,4.92v23.565l8.522,4.92Z" fill="#009cdc" fill-rule="evenodd"/>
    <path id="Контур_56" data-name="Контур 56" d="M-1965.4,2876.372v31.335l-6.729,3.885v-39.1Z" fill="#fff" fill-rule="evenodd"/>
    <path id="Контур_57" data-name="Контур 57" d="M-1977.283,2871.187v43.383l-6.729,3.885v-52.83l6.729,3.885Z" fill="#fff" fill-rule="evenodd"/>
    <path id="Контур_58" data-name="Контур 58" d="M-1989.169,2868.642l5.157-2.978v7.77l-5.157,2.978v-7.77Z" fill="#262626" fill-rule="evenodd"/>
  </g>
</svg>
