<svg xmlns="http://www.w3.org/2000/svg" width="54.274" height="62.67" viewBox="0 0 54.274 62.67">
  <g id="Сгруппировать_71" data-name="Сгруппировать 71" transform="translate(2019.671 -38.168)">
    <path id="Контур_35" data-name="Контур 35" d="M-1977.283,52.928l5.157-2.978v7.77l-5.157,2.977Z" fill="#262626" fill-rule="evenodd"/>
    <path id="Контур_36" data-name="Контур 36" d="M-1989.169,98.9l-3.365,1.942-11.886-6.862v-7.77l8.521,4.92V47.881l-8.521,4.92v-7.77l11.886-6.863,3.365,1.943V98.9Zm-15.251-4.92L-2006.1,93l-13.569-7.833V53.836L-2006.1,46l1.682-.971V52.8l-8.522,4.92V81.286l8.522,4.92Z" fill="#009cdc" fill-rule="evenodd"/>
    <path id="Контур_37" data-name="Контур 37" d="M-1965.4,53.836V85.171l-6.729,3.885v-39.1Z" fill="#545454" fill-rule="evenodd"/>
    <path id="Контур_38" data-name="Контур 38" d="M-1977.283,48.65V92.033l-6.729,3.885V43.088l6.729,3.885Z" fill="#545454" fill-rule="evenodd"/>
    <path id="Контур_39" data-name="Контур 39" d="M-1989.169,46.105l5.157-2.977V50.9l-5.157,2.977v-7.77Z" fill="#262626" fill-rule="evenodd"/>
  </g>
</svg>
